<?xml version="1.0" encoding="utf-8"?>
<!-- Generator: Adobe Illustrator 16.0.0, SVG Export Plug-In . SVG Version: 6.00 Build 0)  -->
<!DOCTYPE svg PUBLIC "-//W3C//DTD SVG 1.1//EN" "http://www.w3.org/Graphics/SVG/1.1/DTD/svg11.dtd">
<svg version="1.1" id="Layer_1" xmlns="http://www.w3.org/2000/svg" xmlns:xlink="http://www.w3.org/1999/xlink" x="0px" y="0px"
	 width="100px" height="24px" viewBox="0 0 100 24" enable-background="new 0 0 100 24" xml:space="preserve">
<g>
	<path d="M41.598,12.887c-0.041-1.806-0.081-3.991-0.081-6.176h-0.041c-0.283,1.917-0.66,4.057-1.01,5.818l-1.105,5.863h-1.604
		l-0.97-5.818c-0.296-1.761-0.606-3.901-0.822-5.863h-0.027c-0.054,2.029-0.094,4.347-0.162,6.22l-0.162,5.707h-1.9l0.58-15.025
		h2.735l0.89,5.016c0.283,1.739,0.565,3.612,0.768,5.373h0.041c0.256-1.739,0.566-3.723,0.862-5.395l0.97-4.994h2.681l0.499,15.025
		h-2.007L41.598,12.887z"/>
	<path d="M46.786,7.736l0.983,5.351c0.108,0.646,0.243,1.449,0.323,2.028h0.041c0.094-0.579,0.202-1.404,0.296-2.028l0.809-5.351
		h2.196l-1.536,7.179c-0.943,4.324-1.576,6.063-2.317,7.156c-0.714,1.025-1.469,1.382-1.98,1.493l-0.431-2.876
		c0.256-0.066,0.579-0.268,0.889-0.579c0.31-0.268,0.646-0.803,0.849-1.36c0.067-0.156,0.108-0.334,0.108-0.49
		c0-0.111-0.014-0.29-0.094-0.558l-2.412-9.965H46.786z"/>
	<path d="M58.603,13.064c0,3.99-1.711,5.818-3.476,5.818c-1.927,0-3.409-2.096-3.409-5.618c0-3.522,1.401-5.773,3.517-5.773
		C57.256,7.491,58.603,9.787,58.603,13.064z M53.833,13.176c0,1.873,0.472,3.277,1.348,3.277c0.795,0,1.307-1.315,1.307-3.277
		c0-1.627-0.377-3.277-1.307-3.277C54.197,9.899,53.833,11.571,53.833,13.176z"/>
	<path d="M66.082,15.138c0,1.427,0.027,2.586,0.054,3.5h-1.778L64.263,17.1h-0.04c-0.256,0.669-0.876,1.783-2.062,1.783
		c-1.334,0-2.317-1.382-2.317-4.748V7.736h2.062V13.6c0,1.583,0.31,2.541,1.023,2.541c0.566,0,0.89-0.646,1.024-1.182
		c0.054-0.2,0.067-0.468,0.067-0.735V7.736h2.062V15.138z"/>
	<path d="M69.047,6.466h-2.438V3.612h6.979v2.854h-2.479v12.172h-2.062V6.466z"/>
	<path d="M80.097,15.138c0,1.427,0.027,2.586,0.054,3.5h-1.778L78.277,17.1h-0.04c-0.256,0.669-0.876,1.783-2.062,1.783
		c-1.334,0-2.317-1.382-2.317-4.748V7.736h2.062V13.6c0,1.583,0.31,2.541,1.024,2.541c0.565,0,0.889-0.646,1.023-1.182
		c0.054-0.2,0.067-0.468,0.067-0.735V7.736h2.062V15.138z"/>
	<path d="M81.687,18.638c0.027-0.714,0.055-2.028,0.055-3.255V2.81h2.048v6.22h0.026c0.391-0.936,1.078-1.538,1.994-1.538
		c1.576,0,2.735,2.163,2.722,5.507c0,3.923-1.509,5.885-3.018,5.885c-0.769,0-1.51-0.468-1.98-1.761h-0.027l-0.081,1.516H81.687z
		 M83.789,14.001c0,0.223,0.014,0.423,0.04,0.602c0.135,0.914,0.606,1.605,1.199,1.605c0.876,0,1.415-1.115,1.415-3.077
		c0-1.694-0.458-3.031-1.415-3.031c-0.553,0-1.064,0.691-1.199,1.672c-0.026,0.201-0.04,0.401-0.04,0.624V14.001z"/>
	<path d="M91.416,14.269c0.067,1.404,0.902,2.073,1.859,2.073c0.7,0,1.267-0.156,1.818-0.446l0.27,2.296
		c-0.674,0.446-1.495,0.669-2.385,0.669c-2.236,0-3.517-2.14-3.517-5.551c0-2.764,1.038-5.818,3.328-5.818
		c2.129,0,2.938,2.742,2.938,5.439c0,0.58-0.041,1.093-0.067,1.338H91.416z M93.827,11.95c0-0.825-0.215-2.207-1.158-2.207
		c-0.862,0-1.213,1.293-1.267,2.207H93.827z"/>
</g>
<path fill="#FC091D" d="M31,11.728C31.001,21.234,31.001,21,21.788,21h-9.012C4,21,4,21.234,4,11.728V11.24
	C4.25,2.232,4.25,2,12.775,2h9.012c9.259,0,9.259,0.212,9.212,9.24V11.728z"/>
<polygon fill="#FFFFFF" points="14.928,15.701 14.79,7.764 21.571,11.891 "/>
</svg>
